# xmcd
#
# Track frame offsets:
#	150
#	14460
#	27164
#	40397
#	58487
#	68804
#	87315
#	100224
#	110092
#	125384
#	139254
#	158867
#
# Disc length: 2351 seconds
#
# Revision: 1
# Processed by: cddbd v1.5.2PL0 Copyright (c) Steve Scherf et al.
# Submitted via: audiograbber 1.83.01
#
DISCID=ab092d0c
DTITLE=The Kelly Family - Who'll Come With Me - CD02 (Lieder Der Welt)
DYEAR=2011
DGENRE=Folk
TTITLE0=Who'll Come With Me (David's Song)
TTITLE1=Join This Parade (Scotland The Brave)
TTITLE2=Knick-Knack Song (This Old Man)
TTITLE3=Mull Of Kintyre
TTITLE4=The Wearing Of The Green
TTITLE5=Old Black Joe
TTITLE6=Double Decker Bus
TTITLE7=Lord Of The Dance
TTITLE8=Eagle On The Breeze
TTITLE9=The Last Rose Of Summer
TTITLE10=La Montanara
TTITLE11=Auld Lang Syne
EXTD=
EXTT0=
EXTT1=
EXTT2=
EXTT3=
EXTT4=
EXTT5=
EXTT6=
EXTT7=
EXTT8=
EXTT9=
EXTT10=
EXTT11=
PLAYORDER=
